<svg width="21" height="20" viewBox="0 0 21 20" fill="none" xmlns="http://www.w3.org/2000/svg">
<path d="M10.6666 0C5.16662 0 0.666626 4.50803 0.666626 10.0602C0.666626 15.0803 4.32662 19.247 9.10661 20V12.9719H6.56662V10.0602H9.10661V7.84137C9.10661 5.32129 10.5966 3.93574 12.8866 3.93574C13.9766 3.93574 15.1166 4.12651 15.1166 4.12651V6.60643H13.8566C12.6166 6.60643 12.2266 7.37952 12.2266 8.17269V10.0602H15.0066L14.5566 12.9719H12.2266V20C14.5831 19.6264 16.7288 18.4192 18.2765 16.5964C19.8243 14.7737 20.672 12.4555 20.6666 10.0602C20.6666 4.50803 16.1666 0 10.6666 0Z" fill="#B48061"/>
</svg>
