<svg width="21" height="20" viewBox="0 0 21 20" fill="none" xmlns="http://www.w3.org/2000/svg">
<path d="M20.3334 2.35294C19.5972 2.76471 18.8037 3.03529 17.9816 3.16471C18.8229 2.54118 19.473 1.55294 19.7789 0.364706C18.9854 0.952941 18.1058 1.36471 17.1785 1.6C16.4232 0.588235 15.3621 0 14.1575 0C11.9108 0 10.0752 2.25882 10.0752 5.04706C10.0752 5.44706 10.1135 5.83529 10.1804 6.2C6.77697 5.98824 3.74638 3.97647 1.72917 0.929412C1.37544 1.67059 1.17467 2.54118 1.17467 3.45882C1.17467 5.21177 1.89169 6.76471 3.00068 7.64706C2.3219 7.64706 1.69093 7.41177 1.13643 7.05882C1.13643 7.05882 1.13643 7.05882 1.13643 7.09412C1.13643 9.54118 2.55135 11.5882 4.42515 12.0471C4.08098 12.1647 3.7177 12.2235 3.34485 12.2235C3.08672 12.2235 2.82859 12.1882 2.58003 12.1294C3.09628 14.1176 4.59724 15.6 6.40412 15.6353C5.00833 17 3.23968 17.8 1.30852 17.8C0.98347 17.8 0.658422 17.7765 0.333374 17.7294C2.14982 19.1647 4.31043 20 6.62401 20C14.1575 20 18.297 12.3059 18.297 5.63529C18.297 5.41176 18.297 5.2 18.2875 4.97647C19.0905 4.27059 19.7789 3.37647 20.3334 2.35294Z" fill="#B48061"/>
</svg>
