<svg width="46" height="44" viewBox="0 0 46 44" fill="none" xmlns="http://www.w3.org/2000/svg">
<rect x="0.888916" width="44.7139" height="44" rx="22" fill="#B48061" fill-opacity="0.15"/>
<path d="M22.8889 12.0001C28.4189 12.0001 32.8889 16.4801 32.8889 22.0001C32.8889 27.5301 28.4189 32.0001 22.8889 32.0001C17.3689 32.0001 12.8889 27.5301 12.8889 22.0001C12.8889 16.4801 17.3689 12.0001 22.8889 12.0001ZM22.5389 16.9301C22.1289 16.9301 21.7889 17.2601 21.7889 17.6801V22.7301C21.7889 22.9901 21.9289 23.2301 22.1589 23.3701L26.0789 25.7101C26.1989 25.7801 26.3289 25.8201 26.4689 25.8201C26.7189 25.8201 26.9689 25.6901 27.1089 25.4501C27.3189 25.1001 27.2089 24.6401 26.8489 24.4201L23.2889 22.3001V17.6801C23.2889 17.2601 22.9489 16.9301 22.5389 16.9301Z" fill="#B48061"/>
</svg>
