<svg width="46" height="44" viewBox="0 0 46 44" fill="none" xmlns="http://www.w3.org/2000/svg">
<rect x="0.888916" width="44.7139" height="44" rx="22" fill="#B48061" fill-opacity="0.15"/>
<g clip-path="url(#clip0_1_361)">
<path d="M30.119 25.26L27.579 24.97C26.969 24.9 26.369 25.11 25.939 25.54L24.099 27.38C21.269 25.94 18.949 23.63 17.509 20.79L19.359 18.94C19.789 18.51 19.999 17.91 19.929 17.3L19.639 14.78C19.519 13.77 18.669 13.01 17.649 13.01H15.919C14.789 13.01 13.849 13.95 13.919 15.08C14.449 23.62 21.279 30.44 29.809 30.97C30.939 31.04 31.879 30.1 31.879 28.97V27.24C31.889 26.23 31.129 25.38 30.119 25.26Z" fill="#B48061"/>
</g>
<defs>
<clipPath id="clip0_1_361">
<rect width="24" height="24" fill="white" transform="translate(10.8889 10)"/>
</clipPath>
</defs>
</svg>
